<svg xmlns="http://www.w3.org/2000/svg" viewBox="0 0 727.5 477.98"><defs><style>.cls-1{fill:#e8e8e8;}.cls-2{fill:#a6dbdf;}.cls-3{fill:#fff;}.cls-4{fill:#ee6b8a;}.cls-5{fill:#a4d7b8;}.cls-6{fill:#f7c36d;}</style></defs><g id="Layer_2" data-name="Layer 2"><g id="Layer_1-2" data-name="Layer 1"><path class="cls-1" d="M727.49,233.07c0-6.12-.78-6.93-6.88-7-8.82-.07-17.65-.05-26.47,0-7.32,0-7.82.59-7.83,8.06,0,21.81,0,43.61-.07,65.42,0,1.68,1.36,6-3.2,2.92-20.28-13.76-42.68-16.11-66-11.62-19.74,3.79-36.22,13.9-49.68,28.79C543.56,346,537,376.86,546.77,410.24c10,34.46,33.86,56.29,68.8,64.95,23.64,5.85,46.31,2.65,67-10.91,6.85-4.5,6.7-4.71,12.62,1.34.69.7,1.54,1.26,2.29,1.91,6.61,5.77,14.62,5.66,22.69,5.5,7.18-.13,7.35-.19,7.35-7.25q0-57.93,0-115.85Q727.5,291.49,727.49,233.07ZM636.92,435.85c-26.57,1.84-53-22.17-53-52.73,0-29.24,24.06-53,53.14-53s53,23.88,53.22,52.4C690.49,414.06,663.15,437.84,636.92,435.85Z"/><path class="cls-1" d="M239.76,288.74C188,287.86,144,330.26,144,383.19c0,53.16,43.58,94.36,93.2,94.57,53.17.22,95.5-41.34,95.72-94A94.5,94.5,0,0,0,239.76,288.74Zm-1.08,147.11c-28.48,1.88-53.39-24.61-53.16-53,.23-27.31,23.31-52.85,52.8-52.79,29.23.06,53.38,23.94,53.28,52.9C291.48,414.47,264.68,437.59,238.68,435.85Z"/><path class="cls-1" d="M440,236.2c-.9,0-1.8-.1-2.71-.13-3.64-.12-5.93-1.24-7.47-4.5-3-6.46-6.23-12.86-9.39-19.27-14.19-28.81-28.67-57.49-42.5-86.47-10.35-21.69-27.52-32.94-50.85-36a71.06,71.06,0,0,0-19.38,0c-11.84,1.68-20.63-2.63-26.56-13.28-12.71-22.82-25.9-45.38-38.44-68.3-3.3-6-7-9-14-8.11-3.93.53-8,.1-12,.1h0c-6.16,0-12.32-.05-18.48,0-2.87,0-4.26.88-1.92,3.82,7.24,9.13,14.37,18.34,21.55,27.52Q240.26,60.34,262.72,89c7.16,9.09,8.48,18.55,2.36,28.67a69.57,69.57,0,0,0-7.88,18.82c-4.8,18.75-3.93,37.09,8.08,52.89,10.35,13.61,22.19,26.09,33.5,39q25.05,28.49,50.31,56.77c2.49,2.79,3.14,5.24,1.59,8.9a14.9,14.9,0,0,0-.88,3.65,93.7,93.7,0,0,0-6,32.95c0,53.16,43.58,94.36,93.2,94.56,53.18.22,95.51-41.33,95.73-94A94.49,94.49,0,0,0,440,236.2ZM345,150.29c4.19-1.49,7.21.4,9.5,3.53,4.79,6.59,9.39,13.32,14,20,14.17,20.54,28.25,41.13,42.54,61.59,2.21,3.16,1.83,4.22-1.8,5.27a82.32,82.32,0,0,0-12.06,4.71c-3.11,1.48-4.94,1.19-6.9-1.95Q365.55,203.62,340.5,164a11.32,11.32,0,0,1-1.93-5.7A9.15,9.15,0,0,1,345,150.29ZM333.82,229.4Q319.87,207.8,306,186.15c-1.7-2.64-2.61-5.4-.74-8.41s4.42-5,8.26-4.63c3.61-.35,5.73,1.86,7.65,4.57q15.6,22,31.27,43.9c7.54,10.56,15,21.16,22.72,31.61,2.19,3,2.34,5-.67,7.53a65,65,0,0,0-8.75,8.88c-2.55,3.14-4,3-6.16-.39C351.11,255.87,342.4,242.67,333.82,229.4ZM438.53,383.29c-28.47,1.89-53.39-24.6-53.15-52.94.22-27.32,23.3-52.85,52.79-52.79,29.23.05,53.39,23.94,53.28,52.9C491.34,361.92,464.53,385,438.53,383.29Z"/><path class="cls-1" d="M117.05,321.93c-19.15,0-38.29-.12-57.43.08-4.66,0-6.49-1.27-6.38-6.19q.42-19.72,0-39.45c-.09-4.7,1.28-6.4,6.18-6.34,19.64.24,39.28.12,58.92.08,5.79,0,6.68-.86,6.72-6.65.08-9.81,0-19.64,0-29.46,0-7.11-.84-7.92-8.14-7.93q-49.43,0-98.86,0c-7.46,0-8,.57-8,7.89V349.8c0,38.95,0,77.9-.07,116.84,0,4.68,1.42,6.58,6.29,6.45,10-.27,20-.07,30-.09,6.86,0,7.07-.21,7.08-7q0-46.68,0-93.37c0-6.7.06-6.76,6.6-6.77,16.14,0,32.29.07,48.43,0,10.36-.08,16.44-6.15,16.68-16.48.14-6.49.06-13,0-19.47C125.06,322.64,124.37,321.94,117.05,321.93Z"/><path class="cls-2" d="M381.09,267.73c5-6.14,12.25-8.79,19.7-8.85A112.13,112.13,0,0,1,414,249.5c3.18-1.87,6.52-3.47,9.73-5.29,1-.59,2-1.24,3-1.87a31.66,31.66,0,0,1,6.28-5.26c.33-.21.66-.41,1-.6q-3.37-.28-6.82-.41c-3.64-.12-5.93-1.24-7.47-4.5-3-6.46-6.23-12.86-9.39-19.27-14.19-28.81-28.67-57.49-42.5-86.47-10.35-21.69-27.52-32.94-50.85-36a71.06,71.06,0,0,0-19.38,0c-11.84,1.68-20.63-2.63-26.56-13.28-12.71-22.82-25.9-45.38-38.44-68.3-3.3-6-7-9-14-8.11-3.93.53-8,.1-12,.1h0c-6.16,0-12.32-.05-18.48,0-2.87,0-4.26.88-1.92,3.82,7.24,9.13,14.37,18.34,21.55,27.52Q230.26,60.34,252.72,89c7.16,9.09,8.48,18.55,2.36,28.67a69.57,69.57,0,0,0-7.88,18.82c-4.8,18.75-3.93,37.09,8.08,52.89,10.35,13.61,22.19,26.09,33.5,39q25.05,28.49,50.31,56.77c2.49,2.79,3.14,5.24,1.59,8.9-1.08,2.55-.95,6.22-1.8,8.8,5.47-3.32,10-7.49,15.39-10.45,3.79-2.08,7.67-4,11.59-5.76C370.44,279.94,376,274,381.09,267.73ZM335,150.29c4.19-1.49,7.21.4,9.5,3.53,4.79,6.59,9.39,13.32,14,20,14.17,20.54,28.25,41.13,42.54,61.59,2.21,3.16,1.83,4.22-1.8,5.27a82.32,82.32,0,0,0-12.06,4.71c-3.11,1.48-4.94,1.19-6.9-1.95Q355.55,203.62,330.5,164a11.32,11.32,0,0,1-1.93-5.7A9.15,9.15,0,0,1,335,150.29ZM355.75,269.6c-2.55,3.14-4,3-6.16-.39-8.48-13.34-17.19-26.54-25.77-39.81Q309.87,207.8,296,186.15c-1.7-2.64-2.61-5.4-.74-8.41s4.42-5,8.26-4.63c3.61-.35,5.73,1.86,7.65,4.57q15.6,22,31.27,43.9c7.54,10.56,15,21.16,22.72,31.61,2.19,3,2.34,5-.67,7.53A65,65,0,0,0,355.75,269.6Z"/><path class="cls-3" d="M303.49,225a2.46,2.46,0,0,1-1.88-.85c-1.67-1.89-3.71-4.2-6-6.76-9.9-11.17-23.47-26.47-30-35.06-8.9-11.72-11.09-25.78-6.68-43a56.71,56.71,0,0,1,6.38-15.22,2.5,2.5,0,0,1,4.27,2.59,51.39,51.39,0,0,0-5.8,13.87c-4,15.65-2.11,28.32,5.82,38.74,6.41,8.44,19.9,23.66,29.76,34.77l6,6.78a2.49,2.49,0,0,1-1.87,4.15Z"/><path class="cls-4" d="M717.5,349.93q0,57.92,0,115.85c0,7.06-.17,7.12-7.35,7.25-8.07.16-16.08.27-22.69-5.5-.75-.65-1.6-1.21-2.29-1.91-5.92-6.05-5.77-5.84-12.62-1.34-20.67,13.56-43.34,16.76-67,10.91-34.94-8.66-58.76-30.49-68.8-64.95-9.73-33.38-3.21-64.27,20.58-90.59,13.46-14.89,29.94-25,49.68-28.79,23.33-4.49,45.73-2.14,66,11.62,4.56,3.1,3.2-1.24,3.2-2.92.1-21.81.07-43.61.07-65.42,0-7.47.51-8,7.83-8.06,8.82,0,17.65-.06,26.47,0,6.1,0,6.88.86,6.88,7Q717.52,291.5,717.5,349.93Zm-90.58,85.92c26.23,2,53.57-21.79,53.36-53.31-.2-28.52-24.25-52.41-53.22-52.4s-53.17,23.74-53.14,53C574,413.68,600.35,437.69,626.92,435.85Z"/><path class="cls-5" d="M322.89,383.79c-.22,52.63-42.55,94.19-95.72,94-49.62-.21-93.21-41.41-93.2-94.57,0-52.93,44.05-95.33,95.79-94.45A94.5,94.5,0,0,1,322.89,383.79Zm-94.21,52.06c26,1.74,52.8-21.38,52.92-52.84.1-29-24.05-52.84-53.28-52.9-29.49-.06-52.57,25.48-52.8,52.79C175.29,411.24,200.2,437.73,228.68,435.85Z"/><path class="cls-3" d="M151.77,385.7h0a2.5,2.5,0,0,1-2.5-2.5,80,80,0,0,1,1.44-15,2.5,2.5,0,1,1,4.91,1,74.89,74.89,0,0,0-1.35,14A2.5,2.5,0,0,1,151.77,385.7Zm6.95-31.77a2.57,2.57,0,0,1-1-.23,2.51,2.51,0,0,1-1.23-3.32,79.19,79.19,0,0,1,73.1-46.32A2.49,2.49,0,0,1,232,306.6a2.46,2.46,0,0,1-2.54,2.45A74.19,74.19,0,0,0,161,352.47,2.51,2.51,0,0,1,158.72,353.93Z"/><path class="cls-3" d="M293.6,426.18a2.46,2.46,0,0,1-1.32-.38,2.51,2.51,0,0,1-.8-3.45,74.18,74.18,0,0,0-1.93-81.05,2.5,2.5,0,1,1,4.13-2.82A79.2,79.2,0,0,1,295.73,425,2.51,2.51,0,0,1,293.6,426.18Zm-13.92-97.45a2.5,2.5,0,0,1-1.67-.64,74.15,74.15,0,0,0-11.34-8.38,2.5,2.5,0,0,1,2.58-4.29,79.51,79.51,0,0,1,12.1,8.95,2.5,2.5,0,0,1-1.67,4.36Z"/><path class="cls-6" d="M522.75,331.23c-.22,52.64-42.55,94.19-95.73,94-49.62-.2-93.21-41.4-93.2-94.56,0-52.94,44.05-95.33,95.8-94.45A94.5,94.5,0,0,1,522.75,331.23Zm-94.22,52.06c26,1.74,52.81-21.37,52.92-52.83.11-29-24.05-52.85-53.28-52.9-29.49-.06-52.57,25.47-52.79,52.79C375.14,358.69,400.06,385.18,428.53,383.29Z"/><path class="cls-4" d="M.07,349.8V234c0-7.32.55-7.88,8-7.89q49.43,0,98.86,0c7.3,0,8.12.82,8.14,7.93,0,9.82.06,19.65,0,29.46,0,5.79-.93,6.64-6.72,6.65-19.64,0-39.28.16-58.92-.08-4.9-.06-6.27,1.64-6.18,6.34q.39,19.72,0,39.45c-.11,4.92,1.72,6.23,6.38,6.19,19.14-.2,38.28-.1,57.43-.08,7.32,0,8,.71,8,8,0,6.49.11,13,0,19.47-.24,10.33-6.32,16.4-16.68,16.48-16.14.12-32.29,0-48.43,0-6.54,0-6.6.07-6.6,6.77q0,46.68,0,93.37c0,6.75-.22,6.95-7.08,7-10,0-20-.18-30,.09-4.87.13-6.3-1.77-6.29-6.45C.12,427.7.07,388.75.07,349.8Z"/><path class="cls-4" d="M.07,349.8V234c0-7.32.55-7.88,8-7.89q49.43,0,98.86,0c7.3,0,8.12.82,8.14,7.93,0,9.82.06,19.65,0,29.46,0,5.79-.93,6.64-6.72,6.65-19.64,0-39.28.16-58.92-.08-4.9-.06-6.27,1.64-6.18,6.34q.39,19.72,0,39.45c-.11,4.92,1.72,6.23,6.38,6.19,19.14-.2,38.28-.1,57.43-.08,7.32,0,8,.71,8,8,0,6.49.11,13,0,19.47-.24,10.33-6.32,16.4-16.68,16.48-16.14.12-32.29,0-48.43,0-6.54,0-6.6.07-6.6,6.77q0,46.68,0,93.37c0,6.75-.22,6.95-7.08,7-10,0-20-.18-30,.09-4.87.13-6.3-1.77-6.29-6.45C.12,427.7.07,388.75.07,349.8Z"/><path class="cls-3" d="M58.67,361.18H45.82a2.5,2.5,0,1,1,0-5H58.67a2.5,2.5,0,1,1,0,5Z"/><path class="cls-3" d="M75.13,361.2a2.5,2.5,0,0,1,0-5q8.09,0,16.17-.05c4.81,0,12.93-1.5,13.18-10.93.1-4.12.07-8.33,0-12.4l0-3.3A2.5,2.5,0,0,1,107,327h0a2.51,2.51,0,0,1,2.5,2.49l0,3.28c0,4.12,0,8.37-.06,12.57-.25,9.82-7,15.72-18.14,15.8q-8.1,0-16.19.05Z"/><path class="cls-3" d="M500.5,350.27a2.3,2.3,0,0,1-.58-.07,2.49,2.49,0,0,1-1.85-3,73.86,73.86,0,0,0,2-16.75,70.23,70.23,0,0,0-20.76-50A72,72,0,0,0,428.07,259a2.5,2.5,0,0,1,0-5h0a77,77,0,0,1,54.76,22.94,75.14,75.14,0,0,1,22.22,53.52,78.66,78.66,0,0,1-2.13,17.89A2.5,2.5,0,0,1,500.5,350.27Z"/><path class="cls-3" d="M487.58,377.77a2.5,2.5,0,0,1-2-4,74.28,74.28,0,0,0,6.77-10.94,2.5,2.5,0,1,1,4.46,2.25,77.71,77.71,0,0,1-7.23,11.68A2.48,2.48,0,0,1,487.58,377.77Z"/><path class="cls-3" d="M432.37,406.93c-1.32,0-2.64,0-4-.13a2.48,2.48,0,0,1-2.32-2.66,2.52,2.52,0,0,1,2.66-2.33c12.69.86,26.12-2.81,37.82-10.31a2.5,2.5,0,0,1,2.7,4.21A69.07,69.07,0,0,1,432.37,406.93Z"/><path class="cls-3" d="M19.22,455.09a2.5,2.5,0,0,1-2.5-2.5V406.68a2.5,2.5,0,0,1,5,0v45.91A2.5,2.5,0,0,1,19.22,455.09Z"/><path class="cls-3" d="M19.22,385.89a2.5,2.5,0,0,1-2.5-2.5V246.27a2.5,2.5,0,0,1,5,0V383.39A2.5,2.5,0,0,1,19.22,385.89Z"/><path class="cls-3" d="M622.81,459.33a64.24,64.24,0,0,1-20.9-3.56,2.5,2.5,0,1,1,1.62-4.73,58.65,58.65,0,0,0,23.15,3.16,2.5,2.5,0,1,1,.34,5C625.62,459.28,624.21,459.33,622.81,459.33Z"/><path class="cls-3" d="M588.05,448.85a2.48,2.48,0,0,1-1.33-.39,77.83,77.83,0,0,1-11.24-8.65,2.5,2.5,0,1,1,3.4-3.67,71.55,71.55,0,0,0,10.51,8.09,2.5,2.5,0,0,1-1.34,4.62Z"/><path class="cls-3" d="M566.52,428.25a2.49,2.49,0,0,1-2-1.06,76.56,76.56,0,0,1-14.05-44,75.6,75.6,0,0,1,22.57-54,76.37,76.37,0,0,1,54-22.38h0a2.5,2.5,0,0,1,0,5,71.36,71.36,0,0,0-50.53,20.93,70.56,70.56,0,0,0-21.1,50.46,71.58,71.58,0,0,0,13.14,41.18,2.5,2.5,0,0,1-.61,3.48A2.47,2.47,0,0,1,566.52,428.25Z"/><path class="cls-3" d="M696.5,283.34a2.5,2.5,0,0,1-2.5-2.5V236.18a2.5,2.5,0,0,1,5,0v44.66A2.5,2.5,0,0,1,696.5,283.34Z"/><path class="cls-3" d="M696.5,333.19a2.5,2.5,0,0,1-2.5-2.5V304.33a2.5,2.5,0,1,1,5,0v26.36A2.5,2.5,0,0,1,696.5,333.19Z"/><path class="cls-3" d="M264.84,83.85a2.51,2.51,0,0,1-2.12-1.16L221.36,17.33a2.5,2.5,0,0,1,4.23-2.68L267,80a2.49,2.49,0,0,1-.78,3.44A2.39,2.39,0,0,1,264.84,83.85Z"/></g></g></svg>